<?xml version="1.0" encoding="iso-8859-1"?>
<!-- Uploaded to: SVG Repo, www.svgrepo.com, Generator: SVG Repo Mixer Tools -->
<svg fill="#000000" height="800px" width="800px" version="1.1" id="Layer_1" xmlns="http://www.w3.org/2000/svg" xmlns:xlink="http://www.w3.org/1999/xlink" 
	 viewBox="0 0 512 512" xml:space="preserve">
<g>
	<g>
		<path d="M186.487,376.17h-1.049v-69.244c0-8.836-7.164-16-16-16H33.049c-8.836,0-16,7.164-16,16v69.244H16
			c-8.836,0-16,7.164-16,16v42.622c0,8.836,7.164,16,16,16h170.487c8.836,0,16-7.164,16-16V392.17
			C202.487,383.333,195.324,376.17,186.487,376.17z M153.439,376.17H49.049v-53.244h104.39V376.17z"/>
	</g>
</g>
<g>
	<g>
		<path d="M410.756,162.888h-36.01c-4.807-12.149-13.871-22.351-25.587-28.48c-7.13-41.801-43.476-73.2-86.921-73.2
			c-41.408,0-76.796,29.053-85.897,68.276c-17.886,3.941-32.507,16.669-39.11,33.404h-35.988c-8.836,0-16,7.164-16,16v80.038h32
			v-64.038h17.529c5.484,24.402,27.312,42.692,53.345,42.692h138.075c22.124,0,45.331-17.341,51.041-42.692h17.523v64.038h32
			v-80.038C426.756,170.052,419.593,162.888,410.756,162.888z"/>
	</g>
</g>
<g>
	<g>
		<path d="M496,376.17h-1.049v-69.244c0-8.836-7.164-16-16-16h-136.39c-8.836,0-16,7.164-16,16v69.244h-1.049
			c-8.836,0-16,7.164-16,16v42.622c0,8.836,7.164,16,16,16H496c8.836,0,16-7.164,16-16V392.17
			C512,383.333,504.836,376.17,496,376.17z M462.95,376.17H358.561v-53.244H462.95V376.17z"/>
	</g>
</g>
</svg>